<svg xmlns="http://www.w3.org/2000/svg" viewBox="0 0 64 64">
  <defs>
    <linearGradient id="g" x1="0%" y1="0%" x2="100%" y2="100%">
      <stop offset="0%" stop-color="#0c7a77" />
      <stop offset="100%" stop-color="#075b63" />
    </linearGradient>
  </defs>
  <rect x="6" y="6" width="52" height="52" rx="16" fill="url(#g)" />
  <path
    d="M18 33h8v-9h5v22h-5v-9h-8v9h-5V24h5zm22-9h5v22h-5zm0 0h8c5 0 8 2.5 8 6.5 0 3.8-2.6 6.3-7.1 6.5L56 46h-6.5l-6.3-9.1H40zm5 4.2v5.1h2.4c2 0 3.2-.9 3.2-2.6 0-1.6-1.2-2.5-3.2-2.5z"
    fill="#fff"
  />
</svg>
